<svg xmlns="http://www.w3.org/2000/svg" xmlns:xlink="http://www.w3.org/1999/xlink" xml:space="preserve" version="1.1" viewBox="0 0 256 256" enable-background="new 0 0 256 256" style="fill-rule:evenodd;clip-rule:evenodd;stroke-linecap:round;stroke-linejoin:round;stroke-miterlimit:1.41421;">
	<g>
		<g><rect id="sfml-bg" fill="#78b478" x="0" y="0" width="256" height="256"/></g>
		<path id="sfml-caravan" fill="#fff" d="M123.368,171.275C130.546,171.275 136.365,177.094 136.365,184.272C136.365,191.451 130.546,197.27 123.368,197.27C116.19,197.27 110.37,191.451 110.37,184.272C110.37,177.094 116.19,171.275 123.368,171.275ZM142.286,175.106C143.642,177.916 144.387,181.007 144.387,184.272C144.387,195.881 134.976,205.291 123.368,205.291C111.759,205.291 102.349,195.881 102.349,184.272C102.349,181.007 103.093,177.916 104.683,174.649C101.758,178.047 99.7667,181.933 99.1154,185.911C93.941,186.075 68.6707,186.219 47.1565,186.131C25.6424,186.042 14.7136,168.804 15.0428,144.642C15.7888,89.877 70.1487,62.9784 97.6786,63.1242C106.38,63.1703 152.902,63.1443 159.865,63.1242C224.405,62.9376 229.935,110.607 229.926,132.712C229.925,136.28 229.839,134.697 229.926,139.121C230.329,159.586 223.384,171.128 215.196,177.079L248.889,177.079L248.889,179.961L210.826,179.961C199.774,186.037 187.436,186.095 181.491,186.131C169.601,186.203 152.94,186.144 147.758,186.131C146.292,181.874 144.532,178.358 142.286,175.106ZM146.002,114.939L100.023,114.939C100.023,114.939 99.9847,97.4294 99.9784,94.111C99.9721,90.7926 103.824,86.0324 107.003,86.0289C110.182,86.0254 135.989,86.0321 138.966,86.0289C141.943,86.0257 145.991,90.9948 146.002,94.111C146.013,97.2272 146.002,114.939 146.002,114.939Z"/>
	</g>
</svg>